<?xml version="1.0" standalone="no"?>
<!DOCTYPE svg PUBLIC "-//W3C//DTD SVG 20010904//EN"
 "http://www.w3.org/TR/2001/REC-SVG-20010904/DTD/svg10.dtd">
<svg version="1.0" xmlns="http://www.w3.org/2000/svg"
 width="177.000000pt" height="169.000000pt" viewBox="0 0 177.000000 169.000000"
 preserveAspectRatio="xMidYMid meet">
<metadata>
Created by potrace 1.10, written by Peter Selinger 2001-2011
</metadata>
<!-- J Letter in dark blue -->
<g transform="translate(0.000000,169.000000) scale(0.100000,-0.100000)"
fill="#1e3a5f" stroke="none" class="j-letter">
<path d="M728 1040 c-3 -501 -4 -526 -23 -557 -36 -60 -121 -80 -192 -46 -50
24 -73 77 -73 176 l0 77 -137 0 -138 0 5 -127 c4 -114 8 -134 33 -185 48 -97
144 -167 263 -189 70 -13 244 -6 294 13 107 40 193 120 228 214 22 55 22 67
22 599 l0 544 -140 3 -139 3 -3 -525z m254 472 c8 -48 2 -968 -7 -982 -5 -9
-4 -11 4 -6 12 8 11 -1 -6 -71 -3 -16 -7 -34 -9 -40 -4 -21 -45 -83 -55 -83
-5 0 -8 -5 -6 -12 1 -7 -4 -12 -10 -13 -7 0 -14 -4 -14 -10 -1 -5 -17 -17 -35
-26 -19 -8 -32 -18 -28 -21 3 -3 -10 -5 -29 -4 -20 1 -33 -2 -31 -6 11 -18
-48 -31 -145 -32 -146 -1 -220 12 -205 36 4 6 2 8 -3 5 -15 -10 -79 19 -87 39
-4 9 -12 14 -22 10 -8 -3 -12 -2 -9 4 3 5 -2 13 -12 19 -10 5 -26 27 -37 48
-10 21 -23 47 -28 58 -6 10 -12 69 -14 130 l-4 110 97 -1 c147 -2 136 1 130
-36 -6 -44 12 -148 27 -148 7 0 6 -3 -2 -9 -10 -6 -9 -11 4 -22 16 -12 17 -12
10 1 -5 8 3 3 18 -12 18 -19 40 -29 73 -33 27 -3 56 -8 66 -10 9 -2 17 1 17 6
0 5 9 9 20 9 11 0 28 9 37 19 9 11 20 18 25 15 4 -3 5 1 2 9 -3 8 0 18 7 23 8
5 10 3 4 -7 -6 -11 -5 -12 6 -1 7 7 14 25 15 40 1 15 3 29 3 32 1 3 1 229 1
502 l0 497 114 0 114 1 4 -28z"/>
</g>
<!-- V Letter with orange accent -->
<g transform="translate(0.000000,169.000000) scale(0.100000,-0.100000)"
fill="#ff4500" stroke="none" class="v-letter">
<path d="M1257 1062 l-137 -309 34 -109 c19 -60 47 -152 62 -204 14 -52 28
-96 29 -98 1 -1 19 37 39 85 21 48 43 102 51 118 7 17 36 84 65 150 80 184
171 386 244 538 l65 137 -157 0 -157 0 -138 -308z m404 276 c4 -6 -3 -27 -15
-47 -11 -20 -30 -58 -42 -86 -11 -27 -25 -49 -31 -48 -5 1 -9 -9 -7 -23 2 -24
-38 -98 -48 -88 -3 2 -4 -7 -2 -22 3 -32 -5 -56 -17 -48 -5 3 -9 -4 -9 -14 0
-22 -23 -46 -34 -35 -4 4 -3 -5 3 -19 7 -20 7 -29 -2 -35 -6 -4 -64 -8 -128
-10 -89 -2 -120 1 -128 11 -9 10 -8 15 4 19 9 4 12 13 8 24 -3 10 -3 15 2 11
4 -4 16 8 25 27 26 50 31 67 20 60 -6 -3 -7 1 -4 10 4 9 9 13 12 10 5 -5 28
49 37 88 8 34 58 116 67 110 6 -3 5 4 -1 15 -8 15 -8 23 0 28 6 3 17 21 25 39
l13 32 123 1 c79 1 125 -2 129 -10z m-211 -496 c0 -2 -14 -24 -30 -49 -17 -24
-28 -49 -25 -54 4 -5 -3 -22 -14 -38 -12 -16 -21 -34 -21 -41 0 -6 -4 -9 -9
-5 -6 3 -8 -6 -5 -21 3 -18 1 -23 -7 -18 -8 4 -9 3 -5 -5 8 -12 -14 -71 -26
-71 -5 0 -8 -7 -8 -16 0 -8 -5 -25 -12 -37 -7 -12 -12 -29 -13 -37 0 -8 -6
-14 -14 -12 -9 2 -12 -4 -8 -18 3 -11 1 -22 -3 -25 -8 -5 -15 27 -25 104 -2
19 -9 37 -16 41 -6 4 -9 12 -5 18 3 6 2 13 -4 17 -6 4 -8 10 -5 15 3 5 -1 20
-10 33 -8 13 -18 44 -21 68 -4 24 -11 47 -16 50 -12 8 -10 18 8 44 8 11 14 27
14 37 0 11 9 18 28 20 41 5 252 5 252 0z"/>
<path d="M1320 1140 c-6 -11 -8 -20 -6 -20 3 0 10 9 16 20 6 11 8 20 6 20 -3
0 -10 -9 -16 -20z"/>
<path d="M1285 1219 c-4 -6 -5 -12 -2 -15 2 -3 7 2 10 11 7 17 1 20 -8 4z"/>
</g>
</svg>
